<?xml version="1.0" encoding="UTF-8"?>
<svg id="Layer_2" data-name="Layer 2" xmlns="http://www.w3.org/2000/svg" viewBox="0 0 978.34 326.65">
  <defs>
    <style>
      .cls-1 {
        fill: #fff;
      }
    </style>
  </defs>
  <g id="Layer_1" data-name="Layer 1">
    <g>
      <polygon class="cls-1" points="493.13 0 538.8 12.45 489.13 25.3 489.15 0 493.13 0"/>
      <path class="cls-1" d="M394.07,202.43l59.16-100.16c-95.33,43.19-192.31,79.71-293.24,107.73,56.25-24.76,111.67-49.25,165.82-78.64l-59.09-27.29C180.5,145.14,91.71,179.79,0,204.98c93.5-39.99,182.25-85.83,266.43-141.71,28.23,18.6,56.93,36.02,87.1,53.44,46.25-25.5,91.36-52.33,135.65-81.64,44.25,29.2,89.23,56.16,135.69,81.59,29.85-17.23,58.66-34.7,87.11-53.41,84.76,56.35,173.51,101.95,266.36,141.7-92.11-25.3-180.34-59.78-266.49-100.82l-59.36,27.21c54.2,29.3,109.54,53.85,165.79,78.64-113.1-31.59-221.44-73.2-327.63-124.02l-96.59,116.46Z"/>
      <polygon class="cls-1" points="513.29 256.1 529.25 255.91 502.92 326.26 487.77 326.47 468.91 274.51 449.63 326.48 434.67 326.41 408.76 256.02 424.57 255.82 442.61 309.52 461.81 256.15 475.98 255.98 494.87 309.66 513.29 256.1"/>
      <path class="cls-1" d="M613.63,326.15l-49.43.1c-9.05.02-16.09-6.3-16.08-15.32l.04-39.78c0-8.44,6.63-14.94,15.13-14.93l50.5.02c8.57,0,14.94,6.94,14.95,15.19v39.31c.01,8.16-6.17,15.41-15.11,15.42ZM609.24,312.42c3.13,0,5.95-3.26,5.96-6.42l.03-29.02c0-4.15-2.9-7.14-7.12-7.13l-39.9.06c-4.04,0-6.54,3.39-6.53,6.97l.08,30.24c0,2.55,2.82,5,5.25,5.33l42.23-.03Z"/>
      <path class="cls-1" d="M736.5,326.32l-19.32.3-24.55-23.22-22.06-.06-.02,23.05-14.08.02-.02-70.56,62.49.17c8.1.02,13.55,6.01,14.89,13.29l-.02,20.32c0,6.22-5.32,11.77-11.58,12.49l-11.32,1.3,25.6,22.88ZM720.34,286.79l-.36-12.68c-.07-2.36-3.44-4.07-5.77-4.07h-43.68s.03,21.64.03,21.64l43.56.06c2.53,0,6.3-1.97,6.22-4.94Z"/>
      <polygon class="cls-1" points="195.31 296.87 142.92 296.86 143 312.45 196.76 312.45 196.83 326.41 129 326.43 128.99 255.87 196.7 255.83 196.87 269.85 142.96 269.85 142.98 285.34 195.25 285.33 195.31 296.87"/>
      <path class="cls-1" d="M922.48,326.08l-56.96.37,1-13.99h50.7c1.36-.02,4.3-.87,5.1-1.79.93-1.08,1.53-3.74,1.72-5.61.46-4.27-1.82-7.74-6.13-7.79l-36.8-.38c-5.69-.06-12.58-2.62-14.98-7.9-3.49-7.66-3.42-17.3.02-25.06,2.12-4.77,8.76-7.82,14.05-7.84l55.72-.24-1.62,14.07-49.21.05c-4.27,0-7.28,2.43-7.25,7.2.01,1.57.64,4.79,1.48,5.99s3.89,2.09,5.65,2.1l35.4.26c5.52.04,12.15,2.37,15.17,6.88,3.49,5.21,2.88,11.52,2.65,17.66-.33,8.43-6.02,15.94-15.74,16Z"/>
      <polygon class="cls-1" points="299.45 326.14 285.76 326.49 236.29 274.77 236.25 326.4 222.84 326.35 222.84 255.93 237.97 256.04 286 306.63 286.15 255.91 299.44 255.94 299.45 326.14"/>
      <polygon class="cls-1" points="842.95 326.32 823.08 326.45 795.42 298.85 774.55 317.64 774.19 326.43 760.24 326.45 760.2 256 774.28 255.91 774.4 300.06 823.03 255.97 843.22 256.01 805.08 290.15 842.95 326.32"/>
      <polygon class="cls-1" points="79.73 326.13 65.74 326.63 65.75 269.86 39.95 269.85 39.98 255.85 105.33 255.85 105.35 269.86 79.71 269.85 79.73 326.13"/>
      <polygon class="cls-1" points="362.43 326.12 348.59 326.65 348.52 269.87 322.83 269.84 322.85 255.87 388.22 255.84 388.25 269.86 362.43 269.82 362.43 326.12"/>
      <polygon class="cls-1" points="305.54 46.4 266.41 56.17 266.31 36.59 305.54 46.4"/>
      <polygon class="cls-1" points="750.76 46.36 711.87 56.2 711.83 36.61 750.76 46.36"/>
    </g>
  </g>
</svg>