<?xml version="1.0" encoding="UTF-8"?>
<svg id="Layer_2" data-name="Layer 2" xmlns="http://www.w3.org/2000/svg" viewBox="0 0 978.34 415.99">
  <g id="Layer_1" data-name="Layer 1">
    <g>
      <polygon points="493.13 0 538.8 12.45 489.13 25.3 489.15 0 493.13 0"/>
      <path d="M455.19,415.99h-2.75c.34.04.19-2.16.41-2.7l5.05-12.38,4.18,1.37-6.89,13.71Z"/>
      <path d="M394.07,202.43l59.16-100.16c-95.33,43.19-192.31,79.71-293.24,107.73,56.25-24.76,111.67-49.25,165.82-78.64l-59.09-27.29C180.5,145.14,91.71,179.79,0,204.98c93.5-39.99,182.25-85.83,266.43-141.71,28.23,18.6,56.93,36.02,87.1,53.44,46.25-25.5,91.36-52.33,135.65-81.64,44.25,29.2,89.23,56.16,135.69,81.59,29.85-17.23,58.66-34.7,87.11-53.41,84.76,56.35,173.51,101.95,266.36,141.7-92.11-25.3-180.34-59.78-266.49-100.82l-59.36,27.21c54.2,29.3,109.54,53.85,165.79,78.64-113.1-31.59-221.44-73.2-327.63-124.02l-96.59,116.46Z"/>
      <polygon points="513.29 256.1 529.25 255.91 502.92 326.26 487.77 326.47 468.91 274.51 449.63 326.48 434.67 326.41 408.76 256.02 424.57 255.82 442.61 309.52 461.81 256.15 475.98 255.98 494.87 309.66 513.29 256.1"/>
      <path d="M613.63,326.15l-49.43.1c-9.05.02-16.09-6.3-16.08-15.32l.04-39.78c0-8.44,6.63-14.94,15.13-14.93l50.5.02c8.57,0,14.94,6.94,14.95,15.19v39.31c.01,8.16-6.17,15.41-15.11,15.42ZM609.24,312.42c3.13,0,5.95-3.26,5.96-6.42l.03-29.02c0-4.15-2.9-7.14-7.12-7.13l-39.9.06c-4.04,0-6.54,3.39-6.53,6.97l.08,30.24c0,2.55,2.82,5,5.25,5.33l42.23-.03Z"/>
      <path d="M736.5,326.32l-19.32.3-24.55-23.22-22.06-.06-.02,23.05-14.08.02-.02-70.56,62.49.17c8.1.02,13.55,6.01,14.89,13.29l-.02,20.32c0,6.22-5.32,11.77-11.58,12.49l-11.32,1.3,25.6,22.88ZM720.34,286.79l-.36-12.68c-.07-2.36-3.44-4.07-5.77-4.07h-43.68s.03,21.64.03,21.64l43.56.06c2.53,0,6.3-1.97,6.22-4.94Z"/>
      <polygon points="195.31 296.87 142.92 296.86 143 312.45 196.76 312.45 196.83 326.41 129 326.43 128.99 255.87 196.7 255.83 196.87 269.85 142.96 269.85 142.98 285.34 195.25 285.33 195.31 296.87"/>
      <path d="M922.48,326.08l-56.96.37,1-13.99h50.7c1.36-.02,4.3-.87,5.1-1.79.93-1.08,1.53-3.74,1.72-5.61.46-4.27-1.82-7.74-6.13-7.79l-36.8-.38c-5.69-.06-12.58-2.62-14.98-7.9-3.49-7.66-3.42-17.3.02-25.06,2.12-4.77,8.76-7.82,14.05-7.84l55.72-.24-1.62,14.07-49.21.05c-4.27,0-7.28,2.43-7.25,7.2.01,1.57.64,4.79,1.48,5.99s3.89,2.09,5.65,2.1l35.4.26c5.52.04,12.15,2.37,15.17,6.88,3.49,5.21,2.88,11.52,2.65,17.66-.33,8.43-6.02,15.94-15.74,16Z"/>
      <polygon points="299.45 326.14 285.76 326.49 236.29 274.77 236.25 326.4 222.84 326.35 222.84 255.93 237.97 256.04 286 306.63 286.15 255.91 299.44 255.94 299.45 326.14"/>
      <polygon points="842.95 326.32 823.08 326.45 795.42 298.85 774.55 317.64 774.19 326.43 760.24 326.45 760.2 256 774.28 255.91 774.4 300.06 823.03 255.97 843.22 256.01 805.08 290.15 842.95 326.32"/>
      <polygon points="79.73 326.13 65.74 326.63 65.75 269.86 39.95 269.85 39.98 255.85 105.33 255.85 105.35 269.86 79.71 269.85 79.73 326.13"/>
      <polygon points="362.43 326.12 348.59 326.65 348.52 269.87 322.83 269.84 322.85 255.87 388.22 255.84 388.25 269.86 362.43 269.82 362.43 326.12"/>
      <polygon points="929 394.18 707.21 394.18 706.9 388.42 929.37 388.42 929 394.18"/>
      <polygon points="271.04 394.24 49.39 394.24 48.96 388.43 271.42 388.43 271.04 394.24"/>
      <polygon points="345.46 381.64 340.87 406.92 335.68 406.92 343.79 366.89 357.1 396.78 370.46 366.49 378.45 406.84 373.34 406.92 368.76 381.68 357.1 407.87 345.46 381.64"/>
      <polygon points="516.01 406.71 510.94 407.04 510.97 388.31 492.76 388.31 492.66 407 487.65 406.94 487.69 368.2 492.69 368.34 492.68 383.62 510.96 383.72 510.97 368.11 515.97 368.15 516.01 406.71"/>
      <polygon points="305.54 46.4 266.41 56.17 266.31 36.59 305.54 46.4"/>
      <polygon points="750.76 46.36 711.87 56.2 711.83 36.61 750.76 46.36"/>
      <polygon points="570.5 392.47 563.32 407.8 551.25 383.16 556.57 383.14 563.39 397.59 570.49 381.56 577.55 397.65 584.41 383.05 589.8 383.12 577.66 407.76 570.5 392.47"/>
      <path d="M546.98,406.01c-.35.5-3.03,1.67-3.39,1.16l-2-2.86c-1.75,1.85-5.01,3.64-7.95,3.62s-6.41-1.67-8.26-4.09c-3.91-5.11-4.09-11.85-.48-17.15,1.73-2.55,5.2-4.5,7.79-4.66,3.59-.22,6.84,1.46,8.99,3.77l1.36-2.68c.28-.56,2.09-.3,3.85-.13l.1,23.02ZM542.47,394.49c-.22-5.49-4.08-8.67-8.62-8.11-3.8.47-6.68,4.29-6.7,8.57-.02,4.8,3.35,8.61,7.5,8.65,4.61.04,8.03-3.65,7.81-9.11Z"/>
      <path d="M406.92,406.25l-3.28.84c-.8.2-1.59-1.8-1.98-2.85-2.25,2.06-5.51,3.79-8.89,3.63-3.03-.14-6.57-2.2-8.32-5.15-2.58-4.35-2.97-9.65-.81-14.16,1.62-3.37,5.16-6.08,8.13-6.42,4-.45,7.57,1.19,9.82,3.69l1.32-2.76c.28-.59,2.25-.3,3.89-.13l.1,23.31ZM402.36,394.5c-.24-5.48-4.12-8.62-8.53-8.14-3.98.44-6.86,4.22-6.83,8.58.03,4.85,3.29,8.65,7.63,8.64,4.48-.02,7.96-3.63,7.72-9.08Z"/>
      <path d="M615.84,405.84c0,.62-2.92,1.94-3.28,1.41l-2-2.98c-1.78,1.77-5.06,3.63-7.93,3.65s-6.46-1.63-8.31-4.02c-3.83-4.93-4.15-11.4-.91-16.66,1.78-2.9,5.35-5.1,8.27-5.23,3.53-.15,6.81,1.58,8.95,3.79l1.35-2.71c.29-.57,2.16-.22,3.81.06l.04,22.69ZM611.37,395.52c.27-5.58-3.19-9.18-7.72-9.19s-7.69,3.74-7.62,8.65c.07,4.71,3.15,8.61,7.59,8.6,3.97,0,7.51-3.04,7.76-8.07Z"/>
      <path d="M429.86,383.06l4.82-.21-.18,15.35c-.07,6.04-4.58,9.89-10.36,9.74-5.19-.13-9.88-3.37-9.98-9.05l-.28-15.93,4.83-.22.13,15.42c.03,3.13,2.78,5.4,5.78,5.32,2.32-.06,5.15-2.73,5.16-5.5l.07-14.92Z"/>
      <polygon points="447.01 406.86 442.27 406.97 442.27 382.92 446.99 382.93 447.01 406.86"/>
      <polygon points="641.75 406.95 636.94 406.96 636.93 382.94 641.73 382.79 641.75 406.95"/>
      <polygon points="628.48 406.67 623.7 407.05 623.67 382.94 628.48 382.87 628.48 406.67"/>
      <path d="M637.28,369.24c1.01-.6,3.92-.49,4.66.28.89.92.49,3.96-.56,4.9-.96.86-3.45.46-4.6-.39-1.03-.76-.62-4.12.5-4.78Z"/>
      <path d="M442.45,369.29c.79-.85,4.41-.49,5.02.51s.29,3.2-.51,4.31c-.69.95-3.2.85-4.47.2s-1.22-3.75-.04-5.01Z"/>
      <path d="M624.2,369.04c1.06-.62,3.99-.2,4.56.7.68,1.09.45,3.9-.57,4.68s-3.72.47-4.68-.38-.49-4.33.69-5.01Z"/>
    </g>
  </g>
</svg>